<svg xmlns="http://www.w3.org/2000/svg" xmlns:xlink="http://www.w3.org/1999/xlink" viewBox="0,0,256,256" width="400px" height="400px"><g fill="#d2831e" fill-rule="nonzero" stroke="none" stroke-width="1" stroke-linecap="butt" stroke-linejoin="miter" stroke-miterlimit="10" stroke-dasharray="" stroke-dashoffset="0" font-family="none" font-weight="none" font-size="none" text-anchor="none" style="mix-blend-mode: normal"><g transform="scale(2.56,2.56)"><path d="M49.9375,17.39063c-0.33675,0 -0.67273,0.1665 -0.86523,0.5l-1.8457,3.19531l-2.71094,4.69336h5.42188h5.41992l-1.25,-2.16602l-0.00781,0.00586c-0.089,-0.14 -0.23606,-0.23828 -0.41406,-0.23828c-0.276,0 -0.5,0.224 -0.5,0.5c0,0.084 0.0255,0.16047 0.0625,0.23047l-0.00586,0.00195l0.38477,0.66602h-3.68945h-3.68945l1.8457,-3.19336l1.84375,-3.19531l0.43359,0.75l0.00781,-0.00391c0.087,0.148 0.24178,0.25195 0.42578,0.25195c0.276,0 0.5,-0.224 0.5,-0.5c0,-0.091 -0.03222,-0.17014 -0.07422,-0.24414l0.00586,-0.00391l-0.43164,-0.75c-0.1925,-0.3335 -0.53044,-0.5 -0.86719,-0.5zM55.35742,25.7793l-2.71094,4.69531l-2.70898,4.69336l-2.71094,-4.69336l-2.71094,-4.69531l-2.71094,4.69531l-1.8457,3.19531c-0.385,0.667 0.09524,1.5 0.86523,1.5h0.76758h0.00195h0.01563v-0.00195c0.268,-0.009 0.48242,-0.22805 0.48242,-0.49805c0,-0.27 -0.21442,-0.48609 -0.48242,-0.49609v-0.00391h-0.78516l1.8457,-3.19531l1.8457,-3.19531l1.84375,3.19531l1.8457,3.19531h-0.75586v0.00391c-0.269,0.008 -0.48437,0.22509 -0.48437,0.49609c0,0.271 0.21538,0.49105 0.48438,0.49805v0.00195h0.01367h0.00195h2.4707h0.00195h5.41992h3.68945c0.77,0 1.25023,-0.833 0.86523,-1.5l-1.8457,-3.19531zM51.97266,20.51563c-0.06448,0.00764 -0.12945,0.02825 -0.18945,0.0625c-0.24,0.137 -0.32255,0.44164 -0.18555,0.68164l0.41406,0.72852c0.137,0.241 0.44164,0.32545 0.68164,0.18945c0.24,-0.137 0.3245,-0.44359 0.1875,-0.68359l-0.41406,-0.72852c-0.10275,-0.18 -0.30069,-0.27292 -0.49414,-0.25zM55.35742,27.7793l1.8457,3.19531l1.8457,3.19531h-3.68945h-3.68945l1.8457,-3.19531zM1.02539,33.06445c-0.176,0.00688 -0.35041,0.0602 -0.50391,0.1582c-0.307,0.197 -0.48203,0.54711 -0.45703,0.91211c0.024,0.337 0.66211,8.30648 7.28711,10.89648c4.622,1.807 10.97664,2.83525 16.05664,3.40625c-4.274,0.232 -9.75901,0.15945 -14.54102,-1.06055l-1.49805,-0.38086c-0.34,-0.086 -0.69727,0.00986 -0.94727,0.25586c-0.25,0.245 -0.35248,0.60236 -0.27148,0.94336l0.35547,1.50391c0.587,2.476 3.07339,7.1582 8.27539,7.1582c3.108,0 8.49508,-0.97602 12.45508,-1.79102c-2.572,1.271 -6.04047,2.53345 -9.85547,2.68945l-1.70117,0.06836c-0.365,0.015 -0.69247,0.22769 -0.85547,0.55469c-0.163,0.327 -0.13378,0.71563 0.07422,1.01563l0.97266,1.40039c0.26,0.371 2.66176,3.63086 6.88477,3.63086c0.503,0 1.0182,-0.04953 1.5332,-0.14453c2.431,-0.451 4.91441,-1.90725 6.94141,-3.40625c-1.23,1.788 -2.45228,3.54014 -2.98828,4.24414l-0.86523,1.13477c-0.204,0.268 -0.25848,0.62145 -0.14648,0.93945c0.113,0.318 0.37708,0.55672 0.70508,0.63672l1.38477,0.33984c0.248,0.061 1.14509,0.25977 2.24609,0.25977c1.824,0 3.28838,-0.55266 4.23438,-1.59766c0.996,-1.101 2.43841,-4.01514 3.56641,-6.49414c0.952,-0.005 1.84903,-0.30128 2.58203,-0.86328c0.826,-0.634 1.3627,-1.53756 1.4707,-2.47656c0.232,-2.007 -0.19714,-4.08789 -4.86914,-5.71289c-1.963,-0.683 -3.19658,-3.18781 -3.14258,-6.38281c0.05,-2.933 1.59147,-5.13234 1.60547,-5.15234c0.254,-0.35 0.25109,-0.82383 -0.00391,-1.17383c-0.256,-0.35 -0.70619,-0.49533 -1.11719,-0.36133c-0.147,0.048 -3.42392,1.14892 -5.41992,4.41992c-5.611,-0.984 -18.26259,-3.68417 -28.93359,-9.45117c-0.1605,-0.0855 -0.33767,-0.12602 -0.51367,-0.11914zM98.97656,33.06445c-0.17587,-0.00688 -0.35317,0.03314 -0.51367,0.11914c-10.671,5.767 -23.32455,8.46817 -28.93555,9.45117c-1.996,-3.272 -5.27097,-4.37192 -5.41797,-4.41992c-0.411,-0.134 -0.86314,0.01133 -1.11914,0.36133c-0.255,0.349 -0.25495,0.82283 -0.00195,1.17383c0.014,0.02 1.55547,2.21934 1.60547,5.15234c0.054,3.195 -1.17958,5.69981 -3.14258,6.38281c-4.673,1.625 -5.10309,3.70589 -4.87109,5.71289c0.108,0.94 0.6447,1.84356 1.4707,2.47656c0.733,0.562 1.63199,0.85828 2.58398,0.86328c1.128,2.478 2.56845,5.39314 3.56445,6.49414c0.945,1.045 2.40937,1.5967 4.23438,1.5957c1.101,0 1.99709,-0.19876 2.24609,-0.25977l1.38477,-0.33789c0.328,-0.08 0.59403,-0.32067 0.70703,-0.63867c0.113,-0.317 0.05656,-0.6695 -0.14844,-0.9375l-0.86328,-1.13672c-0.536,-0.704 -1.75828,-2.45614 -2.98828,-4.24414c2.027,1.499 4.51041,2.9562 6.94141,3.4082c0.514,0.095 1.02825,0.14258 1.53125,0.14258c4.223,0 6.62476,-3.25691 6.88477,-3.62891l0.97266,-1.40039c0.208,-0.3 0.23722,-0.68863 0.07422,-1.01562c-0.163,-0.327 -0.49047,-0.53969 -0.85547,-0.55469l-1.70117,-0.06836c-3.815,-0.156 -7.28052,-1.42041 -9.85352,-2.69141c3.961,0.816 9.34708,1.79102 12.45508,1.79102c5.202,0 7.68644,-4.6822 8.27344,-7.1582l0.35742,-1.50195c0.081,-0.341 -0.02344,-0.69836 -0.27344,-0.94336c-0.249,-0.245 -0.60727,-0.34281 -0.94727,-0.25781l-1.49609,0.38281c-4.782,1.22 -10.26997,1.29059 -14.54297,1.05859c5.08,-0.571 11.43464,-1.5973 16.05664,-3.4043c6.624,-2.59 7.26311,-10.55848 7.28711,-10.89648c0.025,-0.364 -0.14808,-0.71411 -0.45508,-0.91211c-0.154,-0.0985 -0.32803,-0.15133 -0.50391,-0.1582zM44.0957,34.16992c-0.276,0 -0.5,0.224 -0.5,0.5c0,0.276 0.224,0.5 0.5,0.5h0.83984c0.276,0 0.5,-0.224 0.5,-0.5c0,-0.276 -0.224,-0.5 -0.5,-0.5zM2.4043,35.88867c10.987,5.497 23.41169,7.99589 28.42969,8.83789c0.429,0.069 0.85764,-0.14325 1.05664,-0.53125c0.558,-1.09 1.30987,-1.92492 2.04688,-2.54492c-0.288,0.924 -0.5083,2.01575 -0.5293,3.21875c-0.069,4.075 1.69138,7.33464 4.48438,8.30664c3.803,1.323 3.65606,2.5827 3.53906,3.5957c-0.045,0.392 -0.31322,0.82019 -0.69922,1.11719c-0.343,0.263 -0.93223,0.54664 -1.74023,0.43164c-0.035,-0.008 -0.089,-0.01944 -0.125,-0.02344c-0.43,-0.054 -0.85711,0.18298 -1.03711,0.58398c-1.512,3.38 -2.82567,5.84937 -3.51367,6.60938c-0.703,0.776 -1.883,0.93945 -2.75,0.93945c-0.767,0 -1.41287,-0.12269 -1.67187,-0.17969c1.048,-1.394 4.03605,-5.7653 5.74805,-8.2793c0.302,-0.444 0.20053,-1.04623 -0.23047,-1.36523c-0.17,-0.126 -0.34076,-0.26039 -0.50977,-0.40039c-0.392,-0.326 -0.96894,-0.30431 -1.33594,0.05469c-1.62,1.584 -5.80367,5.34464 -9.63867,6.05664c-0.395,0.073 -0.78697,0.11133 -1.16797,0.11133c-2.953,0 -4.78987,-2.17773 -5.17187,-2.67773c6.703,-0.312 12.34089,-3.72264 14.46289,-5.18164c0.432,-0.298 0.56092,-0.87903 0.29492,-1.33203c-0.073,-0.123 -0.13908,-0.25281 -0.20508,-0.38281l-0.06445,-0.12695c-0.209,-0.405 -0.66433,-0.61863 -1.11133,-0.51562c-2.705,0.621 -11.86864,2.64648 -16.18164,2.64648c-3.882,0 -5.79873,-3.54567 -6.30273,-5.51367c8.397,2.108 18.70678,0.87431 21.67578,0.44531c0.512,-0.074 0.88247,-0.52597 0.85547,-1.04297l-0.01758,-0.23047c-0.008,-0.105 -0.01567,-0.21089 -0.01367,-0.33789c0.002,-0.022 0.00781,-0.13134 0.00781,-0.15234c0.008,-0.535 -0.4045,-0.98067 -0.9375,-1.01367c-4.344,-0.271 -15.1827,-1.1878 -21.9707,-3.8418c-3.646,-1.426 -5.10778,-5.03725 -5.67578,-7.28125zM97.59766,35.88867c-0.568,2.244 -2.02978,5.85525 -5.67578,7.28125c-6.788,2.653 -17.6267,3.56884 -21.9707,3.83984c-0.533,0.034 -0.9455,0.47967 -0.9375,1.01367c0,0.022 0.00581,0.13134 0.00781,0.15234c0.002,0.127 -0.00567,0.23289 -0.01367,0.33789l-0.01758,0.23047c-0.028,0.517 0.34347,0.96897 0.85547,1.04297c2.969,0.429 13.27878,1.66269 21.67578,-0.44531c-0.504,1.968 -2.42173,5.51563 -6.30273,5.51563c-4.312,0 -13.47564,-2.02548 -16.18164,-2.64648c-0.447,-0.103 -0.90233,0.11062 -1.11133,0.51562l-0.06445,0.125c-0.067,0.13 -0.13208,0.25881 -0.20508,0.38281c-0.267,0.453 -0.13808,1.03403 0.29492,1.33203c2.121,1.459 7.75889,4.86964 14.46289,5.18164c-0.382,0.5 -2.21887,2.67773 -5.17187,2.67773c-0.381,0 -0.77297,-0.03637 -1.16797,-0.10937c-3.835,-0.712 -8.01867,-4.47264 -9.63867,-6.05664c-0.367,-0.359 -0.94294,-0.38264 -1.33594,-0.05664c-0.169,0.14 -0.33976,0.27439 -0.50977,0.40039c-0.431,0.319 -0.53247,0.92319 -0.23047,1.36719c1.71,2.515 4.69805,6.88434 5.74805,8.27734c-0.259,0.057 -0.90488,0.18164 -1.67187,0.18164c-0.867,0 -2.047,-0.16345 -2.75,-0.93945c-0.687,-0.76 -2.00167,-3.23133 -3.51367,-6.61133c-0.18,-0.401 -0.60811,-0.63603 -1.03711,-0.58203c-0.035,0.004 -0.09,0.01348 -0.125,0.02148c-0.807,0.114 -1.39724,-0.16964 -1.74023,-0.43164c-0.387,-0.297 -0.65422,-0.72519 -0.69922,-1.11719c-0.117,-1.012 -0.26394,-2.27075 3.53906,-3.59375c2.793,-0.972 4.55338,-4.23359 4.48438,-8.30859c-0.02,-1.202 -0.2413,-2.2928 -0.5293,-3.2168c0.737,0.62 1.48887,1.45197 2.04688,2.54297c0.199,0.388 0.62764,0.59925 1.05664,0.53125c5.017,-0.842 17.44269,-3.33794 28.42969,-8.83594zM49.9375,37.35156c-0.19613,0 -0.39084,0.09606 -0.46484,0.28906c-0.514,1.332 -1.40995,3.15028 -2.75195,4.23828c-0.352,0.285 -0.70269,0.53892 -1.05469,0.79492c-1.54,1.12 -2.87111,2.0865 -3.03711,4.9375c-0.013,0.217 0.11541,0.41709 0.31641,0.49609c0.2,0.08 0.43036,0.02052 0.56836,-0.14648c0.927,-1.125 1.34625,-1.18359 1.40625,-1.18359c0.046,0.001 0.11441,0.01461 0.19141,0.09961c0.052,0.057 0.22702,0.30475 0.29102,1.09375c0.016,0.198 0.14503,0.36664 0.33203,0.43164c0.186,0.064 0.39525,0.01314 0.53125,-0.13086c0.146,-0.156 0.50759,-0.51758 0.68359,-0.51758l0.06836,0.00586c0.235,0.068 0.37897,0.83727 0.41797,1.07227c0.03,0.186 0.16375,0.33948 0.34375,0.39648c0.178,0.056 0.37581,0.00705 0.50781,-0.12695c0.143,-0.147 0.34272,-0.32117 0.51172,-0.32617c0.023,0.015 0.24502,0.17209 0.66602,1.37109c0.071,0.2 0.26066,0.33398 0.47266,0.33398c0.212,0 0.40066,-0.13399 0.47266,-0.33398c0.421,-1.2 0.64403,-1.35819 0.70703,-1.36719c0.129,0 0.3267,0.17527 0.4707,0.32227c0.132,0.135 0.32781,0.18591 0.50781,0.12891c0.18,-0.057 0.31375,-0.21048 0.34375,-0.39648c0.039,-0.235 0.18167,-1.00641 0.38867,-1.06641l0.07422,-0.01367c0.201,0 0.56298,0.36353 0.70898,0.51953c0.135,0.144 0.3413,0.19291 0.5293,0.12891c0.186,-0.066 0.31798,-0.23464 0.33398,-0.43164c0.064,-0.789 0.23706,-1.03675 0.28906,-1.09375c0.061,-0.067 0.12412,-0.09566 0.20313,-0.09766c0.043,0 0.45348,0.03269 1.39648,1.17969c0.138,0.166 0.36436,0.22548 0.56836,0.14648c0.201,-0.079 0.32941,-0.27814 0.31641,-0.49414c-0.167,-2.849 -1.49683,-3.81731 -3.04883,-4.94531c-0.34,-0.247 -0.69097,-0.50111 -1.04297,-0.78711c-1.342,-1.089 -2.23695,-2.90628 -2.75195,-4.23828c-0.0745,-0.193 -0.27067,-0.28906 -0.4668,-0.28906zM49.93555,39.09766c0.585,1.243 1.43284,2.62059 2.58984,3.55859c0.366,0.297 0.7297,0.56308 1.0957,0.83008c1.13,0.821 1.971,1.43212 2.375,2.70313c-0.376,-0.277 -0.72087,-0.41016 -1.04687,-0.41016c-0.364,0.01 -0.68373,0.15873 -0.92773,0.42773c-0.17,0.188 -0.30153,0.44439 -0.39453,0.77539c-0.368,-0.224 -0.6453,-0.2728 -0.9043,-0.2168l-0.14258,0.0332c-0.335,0.096 -0.69427,0.31366 -0.94727,1.09766c-0.206,-0.097 -0.37758,-0.11719 -0.51758,-0.11719c-0.448,0 -0.79273,0.16439 -1.17773,0.90039c-0.385,-0.736 -0.73169,-0.90039 -1.17969,-0.90039c-0.14,0 -0.31058,0.02019 -0.51758,0.11719c-0.256,-0.785 -0.62758,-1.00619 -1.01758,-1.11719c-0.035,-0.011 -0.07138,-0.01753 -0.10937,-0.01953l-0.14062,-0.00586c-0.185,0 -0.41756,0.03461 -0.72656,0.22461c-0.094,-0.329 -0.22553,-0.58449 -0.39453,-0.77148c-0.239,-0.265 -0.56092,-0.41673 -0.91992,-0.42773c-0.329,0 -0.67759,0.13502 -1.05859,0.41602c0.405,-1.276 1.24862,-1.88875 2.39063,-2.71875c0.353,-0.257 0.71798,-0.52136 1.08398,-0.81836c1.157,-0.938 2.00389,-2.31655 2.58789,-3.56055zM49.93555,53.3418c-0.178,0 -0.35491,0.08209 -0.44141,0.24609c-0.117,0.221 -0.24762,0.4198 -0.39062,0.5918c-0.25,0.3 -0.54823,0.57895 -0.86523,0.87695c-0.559,0.524 -1.13617,1.06706 -1.70117,1.91406c-0.415,0.624 -0.63989,1.15214 -0.83789,1.61914c-0.233,0.549 -0.43605,1.02338 -0.87305,1.48438c-0.207,0.218 -0.47211,0.41217 -0.78711,0.57617c-0.177,0.091 -0.28158,0.27952 -0.26758,0.47852c0.014,0.199 0.14403,0.36955 0.33203,0.43555c1.53,0.542 4.13806,1.71394 4.41406,3.46094c0.291,1.842 -0.45287,2.93678 -0.92187,3.42578c-0.157,0.165 -0.18445,0.41537 -0.06445,0.60938c0.413,0.669 1.09625,2.01839 1.03125,3.52539c-0.07,1.6 -0.81386,3.01483 -1.13086,3.54883c-0.1,0.169 -0.09347,0.38197 0.01953,0.54297c0.329,0.468 1.13758,1.69366 1.51758,2.97266c0.176,0.59 0.33942,1.22073 0.48242,1.80273c0.055,0.224 0.25633,0.38281 0.48633,0.38281c0.231,0 0.43037,-0.15786 0.48438,-0.38086c0.142,-0.582 0.30742,-1.21469 0.48242,-1.80469c0.381,-1.279 1.18662,-2.50466 1.51563,-2.97266c0.113,-0.161 0.12148,-0.37397 0.02148,-0.54297c-0.317,-0.534 -1.06186,-1.94883 -1.13086,-3.54883c-0.066,-1.507 0.6163,-2.85639 1.0293,-3.52539c0.12,-0.194 0.09355,-0.44437 -0.06445,-0.60937c-0.468,-0.488 -1.21192,-1.58378 -0.91992,-3.42578c0.275,-1.747 2.88406,-2.91698 4.41406,-3.45898c0.188,-0.066 0.31803,-0.2385 0.33203,-0.4375c0.014,-0.199 -0.09253,-0.38752 -0.26953,-0.47852c-0.316,-0.163 -0.58011,-0.35622 -0.78711,-0.57422c-0.437,-0.461 -0.63809,-0.93538 -0.87109,-1.48437c-0.198,-0.467 -0.42289,-0.99709 -0.83789,-1.62109c-0.565,-0.847 -1.14308,-1.38802 -1.70508,-1.91602c-0.314,-0.295 -0.60937,-0.575 -0.85937,-0.875c-0.144,-0.173 -0.27658,-0.3718 -0.39258,-0.5918c-0.0865,-0.164 -0.26536,-0.24609 -0.44336,-0.24609zM49.9375,54.73828c0.021,0.028 0.04441,0.05408 0.06641,0.08008c0.289,0.347 0.60627,0.6468 0.94727,0.9668c0.517,0.486 1.05173,0.98728 1.55273,1.73828c0.364,0.546 0.56,1.01003 0.75,1.45703c0.249,0.585 0.50441,1.18925 1.06641,1.78125c0.068,0.071 0.13984,0.14003 0.21484,0.20703c-1.901,0.794 -3.87401,2.04944 -4.16602,3.89844c-0.312,1.967 0.35959,3.26933 0.93359,3.98633c-0.467,0.835 -1.05823,2.22039 -0.99023,3.77539c0.068,1.563 0.66833,2.92833 1.11133,3.73633c-0.457,0.683 -1.11956,1.801 -1.47656,3c-0.003,0.012 -0.00677,0.0222 -0.00977,0.0332c-0.003,-0.012 -0.00677,-0.0222 -0.00977,-0.0332c-0.357,-1.2 -1.01956,-2.317 -1.47656,-3c0.443,-0.807 1.04333,-2.17333 1.11133,-3.73633c0.068,-1.555 -0.52423,-2.94039 -0.99023,-3.77539c0.574,-0.717 1.24559,-2.01933 0.93359,-3.98633c-0.292,-1.848 -2.26602,-3.10444 -4.16602,-3.89844c0.075,-0.067 0.14784,-0.13603 0.21484,-0.20703c0.562,-0.593 0.81741,-1.1982 1.06641,-1.7832c0.19,-0.448 0.387,-0.91008 0.75,-1.45508c0.501,-0.751 1.03564,-1.25319 1.55664,-1.74219c0.337,-0.316 0.65531,-0.61489 0.94531,-0.96289c0.022,-0.027 0.04345,-0.05308 0.06445,-0.08008zM43.41016,64.00781c-1.112,0 -2.09578,0.64731 -2.55078,1.69531l-2.84766,4.74023c-2.288,0.003 -6.68908,0.02155 -6.95508,0.06055c-0.915,0.13 -1.81181,0.80837 -1.75781,1.85938c0.019,0.367 0.04727,0.92339 5.44727,7.15039c0.194,0.224 0.47186,0.34375 0.75586,0.34375c0.132,0 0.26558,-0.02508 0.39258,-0.08008c0.399,-0.17 0.64252,-0.57777 0.60352,-1.00977l-0.26172,-2.91602l3.06641,0.05664l0.12695,1.11719c0.042,0.371 0.28576,0.68927 0.63477,0.82227c0.347,0.132 0.74148,0.0595 1.02148,-0.1875c4.69,-4.157 4.88961,-4.47147 4.97461,-4.60547c0.21,-0.33 0.27364,-0.73653 0.18164,-1.14453c-0.11,-0.486 -0.45447,-0.98047 -0.85547,-1.23047h-0.00195c-0.2,-0.123 -0.28003,-0.17417 -1.33203,-0.20117l1.62891,-2.12109c0.018,-0.024 0.05041,-0.07266 0.06641,-0.09766c0.282,-0.443 0.43164,-0.95637 0.43164,-1.48437c0,-1.527 -1.24253,-2.76758 -2.76953,-2.76758zM56.58984,64.00781c-1.527,0 -2.76953,1.24253 -2.76953,2.76953c0,0.527 0.14964,1.04138 0.43164,1.48438c0.016,0.025 0.04841,0.07466 0.06641,0.09766l1.63086,2.11914c-1.052,0.027 -1.13499,0.07717 -1.33398,0.20117l-0.00195,0.00195c-0.401,0.25 -0.74547,0.74447 -0.85547,1.23047c-0.092,0.408 -0.02736,0.81453 0.18164,1.14453c0.085,0.134 0.28461,0.44747 4.97461,4.60547c0.279,0.248 0.67348,0.31755 1.02148,0.18555c0.349,-0.133 0.59472,-0.44931 0.63672,-0.82031l0.12695,-1.11719l3.06445,-0.05859l-0.26172,2.91602c-0.039,0.432 0.20647,0.83977 0.60547,1.00977c0.126,0.054 0.25763,0.08103 0.39063,0.08203c0.284,0 0.56381,-0.1217 0.75781,-0.3457c5.4,-6.227 5.42827,-6.78144 5.44727,-7.14844c0.054,-1.05 -0.84281,-1.73133 -1.75781,-1.86133c-0.266,-0.039 -4.66608,-0.05855 -6.95508,-0.06055l-2.84766,-4.73828c-0.454,-1.048 -1.44073,-1.69727 -2.55273,-1.69727zM43.41016,66.00781c0.424,0 0.76953,0.34358 0.76953,0.76758c0,0.146 -0.04098,0.28828 -0.08398,0.36328l-2.84766,3.70313c-0.231,0.301 -0.27147,0.70783 -0.10547,1.04883c0.166,0.341 0.51163,0.55755 0.89063,0.56055c0.842,0.006 1.4185,0.01639 1.8125,0.02539c-0.601,0.563 -1.58744,1.45525 -2.64844,2.40625l-0.00781,-0.06836c-0.057,-0.498 -0.47361,-0.87672 -0.97461,-0.88672l-5.05664,-0.09766c-0.274,0.007 -0.557,0.11036 -0.75,0.31836c-0.194,0.208 -0.28867,0.48848 -0.26367,0.77148l0.08008,0.89844c-1.158,-1.382 -2.17283,-2.63994 -2.67383,-3.33594c0.911,-0.016 3.82334,-0.04002 7.02734,-0.04102c0.351,0 0.67642,-0.18337 0.85742,-0.48437l3.17578,-5.28516c0.028,-0.048 0.06398,-0.12673 0.08398,-0.17773c0.116,-0.296 0.39684,-0.48633 0.71484,-0.48633zM56.58984,66.00781c0.318,0 0.5998,0.19033 0.7168,0.48633c0.02,0.052 0.05498,0.13269 0.08398,0.17969l3.17578,5.2832c0.181,0.301 0.50642,0.48633 0.85742,0.48633c3.203,0 6.11534,0.02402 7.02734,0.04102c-0.501,0.695 -1.51778,1.95198 -2.67578,3.33398l0.08203,-0.89648c0.025,-0.283 -0.07162,-0.56348 -0.26562,-0.77148c-0.193,-0.207 -0.476,-0.31136 -0.75,-0.31836l-5.05664,0.0957c-0.502,0.01 -0.91761,0.38872 -0.97461,0.88672l-0.00781,0.07031c-1.061,-0.951 -2.04448,-1.8452 -2.64648,-2.4082c0.394,-0.009 0.96855,-0.01744 1.81055,-0.02344c0.379,-0.003 0.72362,-0.2215 0.89063,-0.5625c0.166,-0.341 0.12553,-0.74587 -0.10547,-1.04687l-2.84766,-3.70312c-0.043,-0.074 -0.08398,-0.21728 -0.08398,-0.36328c0,-0.424 0.34553,-0.76953 0.76953,-0.76953z"></path></g></g></svg>